<?xml version="1.0" encoding="utf-8"?>
<!-- Generator: Adobe Illustrator 18.1.1, SVG Export Plug-In . SVG Version: 6.00 Build 0)  -->
<!DOCTYPE svg PUBLIC "-//W3C//DTD SVG 1.1//EN" "http://www.w3.org/Graphics/SVG/1.1/DTD/svg11.dtd">
<svg version="1.1" id="Layer_1" xmlns="http://www.w3.org/2000/svg" xmlns:xlink="http://www.w3.org/1999/xlink" x="0px" y="0px"
	 viewBox="0 0 796.7 193.3" enable-background="new 0 0 796.7 193.3" xml:space="preserve">
<text transform="matrix(1 0 0 1 212.9357 136.7049)" fill="#6F5846" font-family="'Lato-Regular'" font-size="102" letter-spacing="6">ESTRELLA</text>
<g>
	<g>
		<path fill="#A95A52" d="M120,124.9l33.1,10l-9.4-33.2l10-33.1L120.4,78l-33.1-10l9.4,33.2l-10,33.1L120,124.9z"/>
	</g>
	<path fill="#FFFFFF" stroke="#F18052" stroke-width="5" stroke-miterlimit="10" d="M181.2,101.5l-47.5-13.6l-13.6-47.5l-13.6,47.5
		l-47.5,13.6l47.5,13.6l13.6,47.5l13.6-47.5L181.2,101.5z"/>
	<rect x="81.9" y="62.7" fill="#FFFFFF" width="11" height="11"/>
	<rect x="81.9" y="128.2" fill="#FFFFFF" width="11" height="11"/>
	<rect x="148.1" y="62.7" fill="#FFFFFF" width="11" height="11"/>
	<rect x="148.1" y="128.2" fill="#FFFFFF" width="11" height="11"/>
</g>
</svg>
